<svg width="20" height="20" viewBox="0 0 20 20" fill="none" xmlns="http://www.w3.org/2000/svg">
    <path fill-rule="evenodd" clip-rule="evenodd" d="M9 4V1C9 0.447715 9.44771 0 10 0C10.5523 0 11 0.447715 11 1V4C11 4.55228 10.5523 5 10 5C9.44771 5 9 4.55228 9 4ZM9 19V16C9 15.4477 9.44771 15 10 15C10.5523 15 11 15.4477 11 16V19C11 19.5523 10.5523 20 10 20C9.44771 20 9 19.5523 9 19ZM13.634 1.70577C13.9101 1.22748 14.5217 1.0636 15 1.33975C15.4783 1.61589 15.6422 2.22748 15.366 2.70577L13.866 5.30385C13.5899 5.78214 12.9783 5.94602 12.5 5.66987C12.0217 5.39373 11.8578 4.78214 12.134 4.30385L13.634 1.70577ZM7.5 14.3301C7.02171 14.054 6.41012 14.2179 6.13397 14.6962L4.63397 17.2942C4.35783 17.7725 4.52171 18.3841 5 18.6603C5.47829 18.9364 6.08988 18.7725 6.36603 18.2942L7.86603 15.6962C8.14217 15.2179 7.97829 14.6063 7.5 14.3301ZM17.2942 4.63397C17.7725 4.35783 18.3841 4.52171 18.6603 5C18.9364 5.47829 18.7725 6.08988 18.2942 6.36603L15.6962 7.86603C15.2179 8.14217 14.6063 7.97829 14.3301 7.5C14.054 7.02171 14.2179 6.41012 14.6962 6.13397L17.2942 4.63397ZM5.66987 12.5C5.39373 12.0217 4.78214 11.8578 4.30385 12.134L1.70577 13.634C1.22748 13.9101 1.0636 14.5217 1.33975 15C1.61589 15.4783 2.22748 15.6422 2.70577 15.366L5.30385 13.866C5.78214 13.5899 5.94602 12.9783 5.66987 12.5ZM19 9C19.5523 9 20 9.44771 20 10C20 10.5523 19.5523 11 19 11H16C15.4477 11 15 10.5523 15 10C15 9.44771 15.4477 9 16 9H19ZM5 10C5 9.44771 4.55228 9 4 9H1C0.447715 9 0 9.44771 0 10C0 10.5523 0.447715 11 1 11H4C4.55228 11 5 10.5523 5 10ZM18.2942 13.634C18.7725 13.9101 18.9364 14.5217 18.6603 15C18.3841 15.4783 17.7725 15.6422 17.2942 15.366L14.6962 13.866C14.2179 13.5899 14.054 12.9783 14.3301 12.5C14.6063 12.0217 15.2179 11.8578 15.6962 12.134L18.2942 13.634ZM5.66987 7.5C5.94602 7.02171 5.78214 6.41012 5.30385 6.13397L2.70577 4.63397C2.22748 4.35783 1.61589 4.52171 1.33975 5C1.0636 5.47829 1.22748 6.08988 1.70577 6.36603L4.30385 7.86603C4.78214 8.14217 5.39373 7.97829 5.66987 7.5ZM15.366 17.2942C15.6422 17.7725 15.4783 18.3841 15 18.6603C14.5217 18.9364 13.9101 18.7725 13.634 18.2942L12.134 15.6962C11.8578 15.2179 12.0217 14.6063 12.5 14.3301C12.9783 14.054 13.5899 14.2179 13.866 14.6962L15.366 17.2942ZM7.5 5.66987C7.97829 5.39373 8.14217 4.78214 7.86603 4.30385L6.36603 1.70577C6.08988 1.22748 5.47829 1.0636 5 1.33975C4.52171 1.61589 4.35783 2.22748 4.63397 2.70577L6.13397 5.30385C6.41012 5.78214 7.02171 5.94602 7.5 5.66987Z" fill="url(#paint0_angular)"/>
    <defs>
        <radialGradient id="paint0_angular" cx="0" cy="0" r="1" gradientUnits="userSpaceOnUse" gradientTransform="translate(10 10) scale(10)">
            <stop offset="0.0309635" stop-color="#B3B3B3"/>
            <stop offset="0.0345659" stop-color="#A6A6A6"/>
            <stop offset="0.214295" stop-color="#A6A6A6"/>
            <stop offset="0.220105" stop-color="#D9D9D9"/>
            <stop offset="0.872386" stop-color="#DBDBDB"/>
            <stop offset="0.87557" stop-color="#BFBFBF"/>
            <stop offset="0.950976" stop-color="#BFBFBF"/>
            <stop offset="0.953556" stop-color="#B3B3B3"/>
        </radialGradient>
    </defs>
</svg>
